<svg width="24" height="24" viewBox="0 0 24 24" fill="none" xmlns="http://www.w3.org/2000/svg">
<g id="icon/restart_alt_black_24dp">
<g id="Group">
<path id="Combined Shape" fill-rule="evenodd" clip-rule="evenodd" d="M12 3.21003V5.00003C16.42 5.00003 20 8.58003 20 13C20 16.64 17.57 19.7 14.25 20.67C13.62 20.86 13 20.35 13 19.7C13 19.27 13.27 18.87 13.69 18.75C16.17 18.02 18 15.72 18 13C18 9.69003 15.31 7.00003 12 7.00003V8.79003C12 9.24003 11.46 9.46003 11.14 9.15003L8.35 6.36003C8.15 6.16003 8.15 5.85003 8.35 5.65003L11.15 2.86003C11.46 2.54003 12 2.76003 12 3.21003ZM7.19 9.41003C6.44 10.42 6 11.66 6 13C6 15.72 7.83 18.02 10.31 18.75C10.73 18.87 11 19.27 11 19.7C11 20.35 10.38 20.86 9.75 20.67C6.43 19.7 4 16.64 4 13C4 11.2 4.6 9.54003 5.6 8.20003C5.96 7.72003 6.68 7.68003 7.1 8.10003C7.45 8.46003 7.49 9.01003 7.19 9.41003Z" fill="black"/>
</g>
</g>
</svg>
