<svg width="24" height="24" viewBox="0 0 24 24" fill="none" xmlns="http://www.w3.org/2000/svg">
<g id="icon/smart_toy_black_24dp">
<path id="Shape" fill-rule="evenodd" clip-rule="evenodd" d="M20 7V9C21.66 9 23 10.34 23 12C23 13.66 21.66 15 20 15V19C20 20.1 19.1 21 18 21H6C4.9 21 4 20.1 4 19V15C2.34 15 1 13.66 1 12C1 10.34 2.34 9 4 9V7C4 5.9 4.9 5 6 5H9C9 3.34 10.34 2 12 2C13.66 2 15 3.34 15 5H18C19.1 5 20 5.9 20 7ZM9 10C8.17 10 7.5 10.67 7.5 11.5C7.5 12.33 8.17 13 9 13C9.83 13 10.5 12.33 10.5 11.5C10.5 10.67 9.83 10 9 10ZM8 17V15H16V17H8ZM13.5 11.5C13.5 12.33 14.17 13 15 13C15.83 13 16.5 12.33 16.5 11.5C16.5 10.67 15.83 10 15 10C14.17 10 13.5 10.67 13.5 11.5Z" fill="black"/>
</g>
</svg>
